<svg xmlns="http://www.w3.org/2000/svg" width="31" height="31" fill="none"><path fill="#3D6AD6" d="M12.613 17.14H9.631c-.469 0-.636-.17-.636-.642V12.86c0-.466.177-.644.64-.645h2.978v-2.64c0-1.193.213-2.334.819-3.379.62-1.07 1.522-1.802 2.679-2.226.74-.271 1.51-.38 2.296-.38.983 0 1.966 0 2.95.002.423 0 .61.188.611.613.002 1.141.002 2.282 0 3.423 0 .43-.18.603-.612.608-.807.008-1.613.003-2.418.035-.814 0-1.241.397-1.241 1.24-.02.89-.009 1.78-.009 2.704h3.473c.491 0 .66.169.66.663l-.002 3.619c0 .487-.158.642-.652.643h-3.489v9.763c0 .52-.163.687-.677.687h-3.757c-.454 0-.63-.177-.63-.63l-.001-9.82Z"/></svg>