<svg xmlns="http://www.w3.org/2000/svg" width="131" height="130" fill="none"><path fill="#7238CE" d="M112.467 33.259c-1.083-1.165-12.122-1.642-14.3-3.467-3.087-2.586-1.684-10.668-4.956-12.892a27.064 27.064 0 0 1 19.256 16.359Z"/><path fill="#8638C6" d="m112.467 42.358 1.95 3.684v3.412c-3.412-4.631-28.326-26.699-38.7-31.6l5.388-1.604h6.229c2.031 0 3.981.217 5.877.65a117.533 117.533 0 0 1 15.925 12.973 98.293 98.293 0 0 1 3.331 3.385c.61 1.49 1.081 3.05 1.408 4.659 0 0-1.408 2.591-1.408 4.441Z"/><path fill="#A035BF" d="M114.417 49.454v16.521c-4.466-8.217-48.493-44.682-68.245-49.43-.495-.119-.771.081-1.234.003l.958-.298H71.68l2.808 1.378c3.516 1.66 6.611 2.145 9.961 4.212a106.557 106.557 0 0 1 18.458 14.425 107.302 107.302 0 0 1 11.51 13.19Z"/><path fill="#BE37B5" d="M114.417 65.975s-.055 23.535-.136 23.4c-4.035-14.869-88.427-65.569-89.077-65.515a27.008 27.008 0 0 1 11.806-6.697s4.571 1.795 6.99 1.795c0 0 1.595-2.56 2.029-2.48 18.49 3.371 36.199 12.07 50.675 26.151 7.231 7.042 13.136 14.923 17.713 23.346Z"/><path fill="#DF35A5" d="M114.282 89.375c-.542 5.58-2.79 10.644-6.229 14.706-1.95-17.848-86.396-71.175-89.186-70.85a26.586 26.586 0 0 1 6.338-9.37c.65-.055 1.3-.082 1.95-.082 22.777-.298 45.69 8.071 63.32 25.242 11.836 11.51 19.771 25.485 23.807 40.354Z"/><path fill="#FB3593" d="M108.052 104.081v.027a27.014 27.014 0 0 1-8.504 6.717c-.46-17.875-75.368-69.146-78.832-68.578.038-1.57-3.558-2.835-3.258-4.33.328-1.623.802-3.19 1.409-4.686a78.936 78.936 0 0 1 8.395-.541c20.53-.271 41.14 7.258 57.01 22.723 13.895 13.514 21.83 30.82 23.78 48.668Z"/><path fill="#FF3A71" d="M90.692 113.533S20.411 50.917 16.917 51.567v-5.525l2.372-3.573c3.467-.568 4.615-.815 8.11-.869 18.226-.244 36.562 6.473 50.645 20.177 13.84 13.46 21.044 31.173 21.504 49.048a26.361 26.361 0 0 1-8.856 2.708Z"/><path fill="#FF3F43" d="M90.692 112.017v1.517c-1.083.135-2.22.216-3.358.216h-5.58c.028-.541-61.316-53.868-64.837-53.11v-9.073a63.207 63.207 0 0 1 10.59-1.056c15.952-.217 31.985 5.66 44.335 17.658 12.35 12.025 18.633 27.896 18.85 43.848Z"/><path fill="#FE4C2B" d="M81.782 112.125c0 .542 0 1.084-.028 1.625h-8.91c.027-.514-3.475-1.749-3.475-2.237-.135-11.402-37.827-45.592-52.452-41.719V60.64a54.883 54.883 0 0 1 10.698-1.219c13.677-.19 27.435 4.848 38.025 15.14 10.562 10.291 15.98 23.887 16.142 37.564Z"/><path fill="#FF5A17" d="M72.871 112.261c0 .487 0 .975-.027 1.489h-8.883c.027-.46-3.131-2.659-3.131-3.12-.136-9.1-31.644-35.663-43.913-31.546v-9.29c14.625-3.873 30.848-.19 42.494 11.131 8.829 8.586 13.325 19.934 13.46 31.336Z"/><path fill="#FF6804" d="M63.988 112.369c0 .46 0 .92-.027 1.381h-8.91c.243-7.258-28.276-29.683-38.053-25.08-.027 0-.081-9.587-.081-9.587 12.269-4.116 26.38-1.435 36.292 8.234a35.675 35.675 0 0 1 10.779 25.052Z"/><path fill="#FF7501" d="M46.113 113.75c.27-4.929-20.15-20.231-26.894-16.169a26.452 26.452 0 0 1-2.221-8.91c9.777-4.604 21.802-2.952 29.981 5.037 5.634 5.471 8.315 12.784 8.071 20.042h-8.937Z"/><path fill="#FF8C01" d="M46.112 113.75H44c-2.33 0-4.577-.298-6.744-.867 0-2.329-9.804-9.669-13.135-7.854a26.522 26.522 0 0 1-4.902-7.448c6.743-4.062 15.654-3.25 21.558 2.519a17.628 17.628 0 0 1 5.335 13.65Z"/><path fill="#FF9B04" d="M37.257 112.884a26.702 26.702 0 0 1-13.136-7.855 8.889 8.889 0 0 1 10.427 1.436 8.897 8.897 0 0 1 2.709 6.419Z"/><path fill="#fff" d="M114.417 43.333v2.709h-97.5v-2.709c0-1.868.19-3.683.542-5.416h31.66L37.013 17.17A27 27 0 0 1 44 16.249h1.896l12.621 21.667h25.81L71.68 16.25h9.424l12.621 21.667h20.15a27.22 27.22 0 0 1 .542 5.416Zm-65 46.351V64.69c0-4.168 4.512-6.776 8.122-4.69l21.662 12.496c3.612 2.085 3.612 7.299 0 9.384L57.539 94.377c-3.61 2.083-8.122-.525-8.122-4.693Z"/></svg>