<svg xmlns="http://www.w3.org/2000/svg" width="31" height="31" fill="none"><path fill="#7238CE" d="M26.34 8.558c-.25-.269-2.797-.379-3.3-.8-.712-.597-.389-2.462-1.143-2.975a6.245 6.245 0 0 1 4.443 3.775Z"/><path fill="#8638C6" d="m26.34 10.658.45.85v.787c-.787-1.068-6.537-6.16-8.93-7.292l1.242-.37h1.438c.469 0 .919.05 1.356.15a27.111 27.111 0 0 1 4.444 3.775c.14.344.25.704.325 1.075 0 0-.325.598-.325 1.025Z"/><path fill="#A035BF" d="M26.79 12.295v3.813C25.759 14.212 15.599 5.797 11.04 4.7c-.113-.028-.177.019-.284 0l.221-.068h5.95l.648.318c.812.383 1.526.495 2.299.972a24.59 24.59 0 0 1 4.26 3.329 24.78 24.78 0 0 1 2.656 3.043Z"/><path fill="#BE37B5" d="M26.79 16.108s-.013 5.43-.032 5.4c-.93-3.432-20.406-15.132-20.556-15.12a6.232 6.232 0 0 1 2.725-1.545s1.055.414 1.613.414c0 0 .368-.59.468-.572a22.51 22.51 0 0 1 11.694 6.035 22.518 22.518 0 0 1 4.088 5.388Z"/><path fill="#DF35A5" d="M26.759 21.507a6.16 6.16 0 0 1-1.438 3.394c-.45-4.119-19.937-16.425-20.58-16.35A6.135 6.135 0 0 1 6.202 6.39c.15-.013.3-.02.45-.02a20.49 20.49 0 0 1 14.612 5.826 20.404 20.404 0 0 1 5.494 9.312Z"/><path fill="#FB3593" d="M25.322 24.901v.007a6.237 6.237 0 0 1-1.963 1.55C23.253 22.333 5.966 10.5 5.167 10.632c.009-.362-.821-.654-.752-1 .076-.374.185-.736.325-1.08a18.22 18.22 0 0 1 1.938-.126 18.43 18.43 0 0 1 13.156 5.244 18.405 18.405 0 0 1 5.488 11.231Z"/><path fill="#FF3A71" d="M21.315 27.083S5.096 12.633 4.29 12.783v-1.275l.548-.824c.8-.132 1.065-.189 1.87-.201a16.4 16.4 0 0 1 11.688 4.656 16.332 16.332 0 0 1 4.963 11.319 6.082 6.082 0 0 1-2.044.625Z"/><path fill="#FF3F43" d="M21.315 26.733v.35a6.3 6.3 0 0 1-.775.05h-1.287c.006-.125-14.15-12.431-14.963-12.256v-2.094a14.36 14.36 0 0 1 12.675 3.831 14.345 14.345 0 0 1 4.35 10.12Z"/><path fill="#FE4C2B" d="M19.259 26.757c0 .125 0 .25-.006.375h-2.057c.006-.118-.802-.403-.802-.516-.03-2.631-8.729-10.521-12.104-9.627v-2.113a12.666 12.666 0 0 1 2.469-.281 12.31 12.31 0 0 1 8.775 3.494 12.274 12.274 0 0 1 3.725 8.668Z"/><path fill="#FF5A17" d="M17.203 26.789c0 .112 0 .225-.007.343h-2.05c.006-.106-.722-.613-.722-.72-.031-2.1-7.303-8.23-10.134-7.28V16.99a10.272 10.272 0 0 1 9.806 2.569 10.223 10.223 0 0 1 3.107 7.23Z"/><path fill="#FF6804" d="M15.152 26.814c0 .106 0 .212-.006.318H13.09c.056-1.675-6.525-6.85-8.781-5.787-.006 0-.019-2.213-.019-2.213 2.831-.95 6.087-.33 8.375 1.9a8.232 8.232 0 0 1 2.488 5.782Z"/><path fill="#FF7501" d="M11.027 27.133c.063-1.138-4.65-4.669-6.206-3.732a6.104 6.104 0 0 1-.512-2.056 6.153 6.153 0 0 1 6.918 1.163 6.13 6.13 0 0 1 1.863 4.625h-2.063Z"/><path fill="#FF8C01" d="M11.027 27.133h-.487a6.103 6.103 0 0 1-1.556-.2c0-.537-2.263-2.231-3.031-1.812a6.12 6.12 0 0 1-1.132-1.719 4.101 4.101 0 0 1 4.975.581 4.068 4.068 0 0 1 1.232 3.15Z"/><path fill="#FF9B04" d="M8.983 26.933a6.162 6.162 0 0 1-3.03-1.813 2.051 2.051 0 0 1 3.03 1.813Z"/><path fill="#fff" d="M26.79 10.883v.625H4.29v-.625c0-.431.044-.85.125-1.25h7.306L8.928 4.845a6.234 6.234 0 0 1 1.612-.212h.438l2.912 5h5.956l-2.919-5h2.175l2.913 5h4.65c.081.4.125.819.125 1.25Zm-15 10.696V15.81a1.25 1.25 0 0 1 1.874-1.082l5 2.884a1.25 1.25 0 0 1 0 2.165l-5 2.884a1.25 1.25 0 0 1-1.874-1.083Z"/></svg>