<svg xmlns="http://www.w3.org/2000/svg" width="31" height="31" fill="none"><path fill="#FF3D00" d="M18.835 2.546c2.636-1.374 5.899-.373 7.286 2.235 1.388 2.609.375 5.836-2.26 7.21l-2.168 1.139c1.867.068 3.648 1.093 4.58 2.846 1.388 2.608.378 5.836-2.26 7.21l-11.557 6.072c-2.635 1.373-5.898.373-7.286-2.236-1.387-2.609-.375-5.836 2.26-7.209l2.168-1.14a5.395 5.395 0 0 1-4.58-2.846c-1.387-2.608-.375-5.836 2.26-7.209l11.557-6.072ZM12.597 11.6l6.995 4.32-6.995 4.297V11.6Z"/><path fill="#fff" d="M12.598 11.601v8.617l6.995-4.298-6.995-4.319Z"/></svg>