<svg xmlns="http://www.w3.org/2000/svg" width="130" height="130" fill="none"><path fill="#FF3D00" d="M78.82 7.126c11.422-5.953 25.562-1.617 31.574 9.688 6.013 11.301 1.625 25.287-9.796 31.237l-9.392 4.938c8.09.295 15.806 4.74 19.847 12.336 6.012 11.302 1.635 25.288-9.797 31.238l-50.077 26.314c-11.42 5.953-25.56 1.617-31.573-9.687-6.013-11.305-1.625-25.288 9.796-31.238l9.392-4.938c-8.09-.295-15.806-4.74-19.846-12.336-6.013-11.302-1.625-25.288 9.796-31.238L78.82 7.126Zm-27.03 39.24L82.1 65.082 51.79 83.707v-37.34Z"/><path fill="#fff" d="M51.79 46.366v37.34L82.1 65.081 51.79 46.366Z"/></svg>